<?xml version="1.0" standalone="no"?>
<!DOCTYPE svg PUBLIC "-//W3C//DTD SVG 20010904//EN"
 "http://www.w3.org/TR/2001/REC-SVG-20010904/DTD/svg10.dtd">
<svg version="1.0" xmlns="http://www.w3.org/2000/svg"
 width="512.000000pt" height="512.000000pt" viewBox="0 0 512.000000 512.000000"
 preserveAspectRatio="xMidYMid meet">
<metadata>
Created by potrace 1.11, written by Peter Selinger 2001-2013
</metadata>
<g transform="translate(0.000000,512.000000) scale(0.100000,-0.100000)"
fill="#000000" stroke="none">
<path d="M2915 3426 c-112 -34 -222 -95 -350 -195 -80 -62 -292 -272 -351
-346 -21 -27 -41 -52 -44 -55 -8 -7 -102 -138 -138 -192 -29 -42 -85 -147
-126 -238 -28 -62 -66 -231 -66 -295 0 -68 29 -178 62 -235 29 -49 84 -97 148
-128 51 -25 64 -27 185 -27 118 1 136 3 193 27 120 51 142 62 142 70 0 4 7 8
15 8 9 0 18 7 21 15 4 8 12 15 19 15 8 0 36 23 64 50 28 28 55 50 61 50 6 0
16 11 22 25 6 14 17 25 25 25 7 0 13 5 13 10 0 6 17 28 38 49 55 57 177 192
201 223 21 26 27 58 14 71 -3 4 -27 -12 -52 -36 -211 -193 -330 -277 -522
-368 -9 -4 -53 -15 -98 -25 -77 -17 -84 -17 -134 -1 -65 22 -87 40 -114 97
-32 67 -37 125 -19 213 24 117 106 306 157 363 11 11 19 23 19 27 0 11 84 131
117 167 18 19 35 42 38 51 3 8 31 43 63 76 31 33 67 71 79 84 121 132 333 289
391 289 41 0 44 -77 5 -158 -15 -31 -31 -61 -35 -67 -5 -5 -27 -37 -49 -70
-50 -73 -136 -175 -167 -199 -26 -20 -50 -12 -31 10 9 11 7 14 -10 14 -38 0
-192 -163 -249 -263 -52 -90 -11 -177 83 -177 57 0 117 28 177 83 26 23 73 65
104 92 65 58 59 50 125 135 28 36 54 67 57 70 11 8 46 62 67 103 11 20 23 37
27 37 14 0 75 145 88 210 21 105 21 116 0 182 -23 71 -31 83 -81 121 -30 22
-45 27 -90 26 -30 -1 -72 -7 -94 -13z"/>
</g>
</svg>
