<?xml version="1.0" standalone="no"?>
<!DOCTYPE svg PUBLIC "-//W3C//DTD SVG 20010904//EN"
 "http://www.w3.org/TR/2001/REC-SVG-20010904/DTD/svg10.dtd">
<svg version="1.0" xmlns="http://www.w3.org/2000/svg"
 width="512.000000pt" height="512.000000pt" viewBox="0 0 512.000000 512.000000"
 preserveAspectRatio="xMidYMid meet">
<metadata>
Created by potrace 1.11, written by Peter Selinger 2001-2013
</metadata>
<g transform="translate(0.000000,512.000000) scale(0.100000,-0.100000)"
fill="#000000" stroke="none">
<path d="M4086 5053 c-4 -4 -55 -8 -114 -9 -139 -2 -135 -1 -128 -19 3 -8 1
-15 -4 -15 -6 0 -10 6 -10 13 0 7 -3 8 -8 2 -8 -12 -52 -16 -52 -5 0 5 -11 3
-24 -3 -13 -7 -22 -15 -20 -19 2 -3 0 -9 -6 -13 -5 -3 -10 -1 -10 6 0 10 -3
10 -11 2 -6 -6 -18 -9 -26 -6 -8 3 -21 -4 -30 -16 -12 -17 -18 -20 -29 -10
-11 9 -14 9 -14 -1 0 -10 -3 -10 -14 -1 -9 8 -16 8 -20 2 -4 -5 -15 -8 -26 -6
-12 2 -17 -1 -14 -9 3 -8 -2 -16 -11 -20 -9 -3 -14 -10 -11 -15 3 -5 -14 -7
-39 -6 -24 2 -44 0 -44 -3 3 -22 -4 -29 -31 -27 -23 1 -30 -2 -26 -12 3 -8 1
-11 -4 -8 -6 3 -10 2 -10 -4 0 -6 -7 -8 -15 -5 -9 4 -18 -1 -21 -11 -4 -9 -13
-14 -20 -11 -7 3 -16 1 -19 -5 -4 -5 -11 -7 -16 -4 -5 4 -9 -1 -9 -9 0 -9 -7
-16 -15 -16 -8 0 -14 -5 -12 -12 1 -7 -5 -13 -13 -14 -8 0 -23 -2 -32 -2 -11
-1 -15 -7 -11 -18 4 -12 0 -14 -20 -9 -19 5 -28 2 -36 -14 -7 -12 -19 -18 -30
-16 -17 3 -54 -28 -44 -38 2 -3 -5 -8 -16 -12 -12 -3 -21 -12 -21 -20 0 -7 -8
-12 -17 -11 -22 3 -54 -15 -47 -26 3 -4 -2 -8 -10 -8 -9 0 -16 -6 -16 -14 0
-8 -9 -12 -25 -11 -16 2 -25 -2 -25 -11 0 -8 -7 -14 -16 -14 -8 0 -13 -4 -10
-9 7 -11 -34 -29 -57 -25 -15 2 -16 0 -6 -12 7 -8 8 -14 3 -13 -20 3 -35 -2
-29 -10 3 -6 -4 -15 -15 -21 -11 -6 -17 -16 -14 -22 5 -7 1 -9 -9 -5 -11 4
-17 1 -17 -7 0 -18 -27 -29 -33 -13 -2 6 -18 -8 -35 -32 -18 -24 -32 -38 -33
-30 0 8 -5 4 -11 -8 -6 -13 -18 -23 -27 -23 -14 0 -14 -2 -1 -10 13 -9 13 -10
0 -11 -45 -2 -55 -8 -90 -53 -9 -12 -10 -17 -2 -12 6 4 12 3 12 -3 0 -5 -10
-13 -22 -17 -32 -10 -52 -31 -35 -37 9 -4 9 -6 -1 -6 -7 -1 -11 -5 -8 -10 3
-5 -5 -8 -18 -8 -24 0 -76 -43 -76 -62 0 -5 -5 -13 -12 -17 -7 -5 -8 -3 -3 7
5 8 -18 -13 -51 -46 -34 -33 -59 -63 -57 -67 2 -5 -1 -8 -7 -8 -15 0 -130
-117 -130 -132 0 -6 -3 -9 -6 -5 -10 10 -54 -41 -54 -63 0 -11 -6 -21 -12 -22
-7 0 -19 -2 -25 -2 -7 -1 -12 -5 -12 -10 0 -5 -5 -13 -13 -17 -11 -7 -11 -9 1
-9 9 0 3 -10 -13 -25 -15 -14 -31 -25 -36 -25 -5 0 -7 -8 -5 -19 2 -12 -2 -18
-13 -17 -10 0 -16 -5 -14 -13 2 -9 -3 -11 -13 -7 -9 3 -14 2 -11 -2 3 -5 -4
-15 -15 -22 -10 -8 -19 -24 -19 -37 0 -12 -4 -25 -10 -28 -5 -3 -10 0 -10 7 0
10 -2 10 -9 0 -4 -8 -12 -14 -17 -15 -5 -1 -9 -12 -8 -24 1 -12 -2 -22 -5 -21
-17 2 -31 -3 -29 -10 2 -4 -18 -29 -44 -55 -26 -26 -43 -47 -37 -47 8 0 8 -4
0 -13 -6 -8 -7 -18 -3 -22 4 -5 1 -5 -6 -1 -7 4 -15 1 -18 -8 -3 -9 -12 -16
-20 -16 -8 0 -13 -6 -12 -12 2 -7 -2 -12 -9 -11 -6 2 -15 -6 -18 -17 -4 -11
-11 -17 -17 -14 -7 5 -9 1 -5 -9 4 -10 2 -17 -5 -17 -6 0 -5 -6 3 -17 10 -11
10 -14 2 -9 -8 4 -13 2 -13 -4 0 -6 -3 -9 -7 -7 -11 6 -37 -26 -41 -48 -2 -11
-14 -30 -28 -42 -13 -12 -24 -27 -24 -34 0 -6 -7 -9 -15 -5 -11 4 -15 -2 -15
-21 0 -17 -11 -36 -31 -54 -17 -15 -30 -30 -29 -33 5 -16 -10 -47 -19 -41 -6
3 -11 0 -11 -8 0 -8 -7 -18 -16 -21 -8 -3 -13 -10 -10 -15 9 -13 -4 -41 -18
-41 -7 0 -12 -12 -12 -27 1 -25 -3 -28 -30 -27 -30 0 -39 -14 -21 -32 7 -7
-43 -51 -54 -47 -3 1 -5 -16 -4 -39 1 -25 -3 -42 -12 -45 -7 -3 -13 -14 -13
-26 0 -11 -14 -33 -31 -48 -21 -19 -29 -34 -25 -44 4 -11 0 -18 -13 -22 -13
-3 -18 -12 -16 -28 1 -16 -4 -25 -17 -28 -11 -3 -18 -11 -17 -19 4 -29 -2 -48
-14 -48 -8 0 -12 -11 -11 -31 2 -23 -6 -40 -32 -67 -19 -20 -30 -38 -26 -41
17 -14 -2 -65 -21 -54 -5 3 -8 -1 -6 -8 4 -32 -2 -49 -17 -49 -12 0 -14 -9
-11 -40 4 -36 -1 -44 -24 -42 -3 1 -5 -18 -5 -41 1 -30 -3 -41 -13 -39 -9 2
-12 -4 -8 -18 3 -11 1 -17 -4 -14 -6 3 -7 -5 -4 -19 5 -19 1 -29 -16 -41 -15
-10 -18 -16 -9 -16 13 0 13 -2 0 -10 -8 -5 -10 -10 -5 -10 6 0 10 -18 10 -40
0 -22 -4 -40 -8 -40 -5 0 -5 -4 -2 -10 3 -5 2 -10 -4 -10 -6 0 -15 -10 -22
-21 -7 -15 -8 -19 0 -15 7 5 9 1 5 -8 -3 -9 -12 -16 -18 -16 -10 0 -12 -73
-11 -313 0 -200 -3 -317 -10 -326 -8 -12 -7 -13 4 -6 11 6 13 3 9 -13 -4 -12
-2 -20 3 -16 5 3 9 0 9 -6 0 -6 4 -9 8 -6 5 3 8 -5 8 -17 -1 -15 4 -21 14 -19
8 2 12 0 8 -4 -4 -4 -3 -13 3 -21 6 -7 7 -13 2 -13 -4 0 -7 -18 -5 -40 2 -22
8 -37 13 -34 5 3 10 0 10 -5 1 -6 3 -15 4 -21 1 -5 3 -17 4 -25 0 -8 7 -14 14
-12 8 1 12 -12 12 -40 -1 -27 4 -43 11 -43 17 0 24 -26 11 -39 -7 -7 -7 -11
-2 -10 6 1 17 0 25 -3 8 -4 24 -9 35 -13 11 -4 15 -9 9 -11 -15 -6 -4 -64 12
-64 8 0 13 -6 11 -12 -1 -7 3 -12 10 -11 6 2 14 -6 18 -16 3 -11 13 -22 21
-25 8 -3 12 -10 9 -16 -4 -6 1 -7 12 -3 10 3 15 3 11 -2 -8 -9 15 -35 32 -35
6 0 8 -4 5 -10 -6 -10 6 -14 37 -11 11 2 18 -4 18 -14 0 -8 7 -18 15 -21 8 -4
12 -11 8 -17 -4 -6 2 -8 16 -4 15 4 31 -4 56 -29 19 -19 39 -33 43 -33 20 3
33 -2 27 -11 -6 -10 15 -15 44 -10 8 1 11 -4 8 -13 -5 -13 4 -17 46 -18 9 0
17 -7 17 -15 0 -10 13 -14 46 -14 25 0 43 -4 40 -9 -3 -5 1 -14 9 -21 10 -9
15 -9 15 -1 0 13 22 10 32 -4 5 -6 8 -5 8 3 0 7 5 10 10 7 6 -4 8 -10 5 -15
-9 -14 24 -18 123 -16 73 1 96 -2 102 -13 10 -18 206 -24 229 -7 11 8 13 8 7
-1 -4 -7 -3 -13 3 -13 5 0 12 8 15 18 5 14 17 17 63 16 69 -1 83 3 83 23 0 13
3 13 15 3 8 -7 15 -8 15 -3 0 5 15 8 33 8 40 -2 59 4 51 16 -3 5 19 9 49 9 41
0 56 4 61 16 3 8 14 14 23 13 40 -4 63 2 63 15 0 8 8 13 18 12 9 -2 24 4 32
13 8 9 25 16 38 15 12 -1 25 3 29 9 4 6 1 7 -8 2 -8 -4 -6 1 4 11 15 16 19 17
27 4 7 -11 10 -11 10 -2 0 7 5 10 10 7 6 -4 10 -3 9 2 -4 25 2 34 17 25 12 -7
22 -4 36 10 10 10 23 16 28 13 5 -3 14 4 20 16 9 17 18 20 40 15 23 -4 28 -2
23 9 -3 9 1 16 8 17 8 0 19 2 24 2 18 3 54 39 48 49 -3 6 -1 7 5 3 7 -4 12 -2
12 5 0 10 3 10 11 2 8 -8 20 -3 43 20 17 18 30 35 29 38 -1 3 8 4 20 2 16 -3
27 4 42 26 10 16 24 29 30 28 5 -1 9 4 7 12 -2 9 5 12 22 9 14 -3 23 -1 20 3
-3 5 -1 9 4 9 5 0 19 9 32 20 13 11 20 20 17 20 -4 0 1 8 11 18 9 10 29 17 44
17 15 -1 25 2 21 7 -5 10 63 78 78 78 5 0 9 4 9 10 0 12 62 76 72 73 4 -2 10
6 13 17 5 15 13 19 31 16 25 -5 43 9 22 17 -7 3 -3 6 10 6 13 1 21 5 17 10 -3
6 4 15 15 21 11 6 20 18 20 28 0 15 2 15 10 2 8 -13 10 -12 10 3 0 10 9 21 21
25 11 5 21 12 22 17 1 6 6 9 10 7 5 -1 6 2 2 8 -3 6 4 14 17 19 13 6 19 10 15
10 -5 1 7 15 27 33 19 17 32 36 29 41 -4 6 1 8 11 4 14 -5 17 -3 12 8 -3 8 -2
14 3 12 10 -3 91 79 85 87 -2 3 -1 4 3 1 9 -7 34 16 27 26 -3 5 4 9 15 9 12 0
20 6 18 13 -1 6 6 11 16 10 11 0 16 4 14 12 -5 13 26 45 43 45 6 0 9 6 7 13
-1 6 5 11 14 11 12 -1 16 5 14 21 -1 15 2 22 10 18 7 -2 23 10 35 26 12 17 26
28 32 24 7 -4 9 0 5 10 -3 10 -2 17 3 17 5 0 7 6 4 14 -3 7 2 16 11 20 9 3 13
11 10 16 -4 6 -3 10 2 9 17 -3 36 1 30 7 -3 3 3 14 13 24 11 11 17 28 15 40
-3 17 0 20 15 15 15 -5 18 -3 14 9 -4 11 -1 16 10 16 9 0 16 6 16 14 0 21 -53
15 -56 -8 -1 -10 -7 -23 -12 -28 -13 -13 -52 0 -49 15 1 7 -4 11 -11 9 -8 -1
-12 3 -9 10 2 7 9 12 15 11 6 -2 9 6 7 17 -2 11 0 22 4 25 5 2 6 15 4 28 -4
20 -1 23 23 23 25 -1 28 3 29 29 0 20 6 31 18 33 13 3 16 10 12 34 -3 17 -9
36 -12 41 -3 6 -1 7 6 3 19 -12 2 43 -20 65 -11 11 -19 16 -20 12 0 -5 -4 2
-9 15 -12 27 -27 28 -35 2 -3 -11 -13 -20 -21 -20 -9 0 -12 -5 -8 -12 5 -8 2
-9 -9 -5 -9 3 -16 3 -16 -1 3 -20 -2 -32 -13 -30 -7 2 -12 -3 -10 -9 2 -12 -3
-14 -40 -17 -19 -2 -29 -19 -15 -28 9 -6 9 -8 -1 -8 -7 0 -10 -4 -7 -10 3 -5
-1 -10 -9 -10 -9 0 -16 -7 -16 -16 0 -8 -3 -13 -7 -11 -10 4 -53 -40 -45 -47
3 -3 0 -6 -6 -6 -38 0 -62 -17 -57 -40 2 -11 -2 -21 -8 -21 -28 -3 -33 -5 -56
-21 -14 -10 -20 -21 -16 -29 5 -7 4 -10 -2 -6 -13 8 -36 -17 -25 -28 4 -5 2
-5 -4 -2 -14 8 -37 -16 -27 -27 4 -4 0 -4 -10 0 -12 4 -17 1 -17 -11 0 -9 -4
-13 -10 -10 -5 3 -10 2 -10 -4 0 -5 -9 -8 -19 -6 -15 3 -19 -2 -17 -20 2 -16
-4 -26 -20 -34 -18 -8 -24 -8 -24 2 0 8 -3 7 -9 -3 -6 -8 -8 -17 -5 -21 2 -5
-5 -6 -16 -4 -12 2 -18 0 -14 -6 8 -13 -44 -61 -57 -53 -12 7 -56 -36 -51 -50
2 -4 -4 -6 -13 -2 -9 3 -13 2 -10 -4 3 -6 1 -10 -5 -10 -6 0 -8 -5 -5 -11 5
-7 -3 -9 -24 -6 -26 4 -31 2 -31 -15 0 -14 -5 -18 -16 -14 -8 3 -13 2 -10 -3
3 -4 -11 -22 -30 -39 -20 -18 -32 -32 -27 -32 4 0 1 -5 -7 -10 -8 -5 -22 -7
-31 -4 -9 2 -19 -2 -23 -11 -3 -8 -17 -15 -31 -15 -18 0 -25 -5 -25 -20 0 -12
-5 -17 -14 -14 -7 3 -16 -2 -20 -11 -4 -11 -12 -14 -26 -10 -14 5 -20 2 -20
-9 0 -9 -7 -16 -16 -16 -10 0 -14 -6 -10 -15 3 -8 1 -15 -4 -15 -6 0 -19 -9
-30 -20 -11 -11 -20 -16 -20 -12 0 5 -7 9 -15 9 -8 0 -12 -4 -9 -9 3 -4 0 -8
-6 -8 -6 0 -9 -4 -5 -9 3 -6 -3 -10 -12 -10 -40 -1 -52 -5 -50 -15 1 -6 -10
-10 -25 -9 -20 1 -26 -2 -21 -13 5 -13 -8 -19 -31 -15 -5 1 -6 -5 -3 -14 6
-15 4 -16 -46 -19 -15 0 -32 -7 -36 -15 -5 -7 -15 -11 -22 -9 -8 3 -22 -4 -31
-15 -10 -11 -18 -17 -18 -12 0 4 -8 1 -17 -6 -11 -9 -14 -10 -9 -2 5 9 2 11
-8 7 -8 -3 -13 -11 -10 -18 3 -9 -8 -12 -40 -11 -24 0 -43 -2 -40 -6 6 -11
-19 -27 -38 -24 -10 2 -18 -3 -18 -10 0 -7 -7 -16 -16 -19 -10 -4 -13 -2 -8 6
5 7 3 8 -7 2 -21 -13 -39 -14 -39 -1 0 8 -3 8 -8 2 -10 -14 -52 -15 -52 -1 0
6 -4 4 -9 -4 -6 -8 -7 -18 -5 -22 6 -9 0 -10 -68 -10 -35 -1 -48 -5 -48 -15 0
-9 -8 -13 -22 -12 -13 2 -29 0 -35 -4 -7 -5 -13 -5 -13 0 0 4 -18 8 -39 8 -22
1 -38 -2 -35 -6 2 -4 -12 -3 -30 1 -22 5 -39 3 -45 -3 -8 -8 -11 -7 -11 1 0 9
-5 10 -19 3 -15 -9 -20 -7 -24 10 -5 17 -12 20 -44 18 -25 -2 -37 1 -36 9 3
11 -4 14 -23 11 -4 0 -11 5 -15 13 -5 7 -9 8 -9 3 0 -6 -9 -11 -19 -11 -11 0
-17 4 -15 8 3 4 1 8 -5 8 -5 0 -8 9 -6 20 4 20 -9 25 -44 20 -9 -1 -12 4 -7
15 3 9 2 13 -4 10 -6 -3 -10 -1 -10 5 0 6 -5 8 -10 5 -6 -3 -10 1 -10 9 0 9
-6 16 -14 16 -8 0 -17 7 -20 16 -3 8 -2 12 4 9 18 -11 11 13 -8 27 -9 7 -19
22 -20 33 -2 11 -8 22 -13 23 -5 2 -9 13 -9 24 0 11 -8 28 -17 37 -17 15 -30
76 -14 67 4 -3 8 1 8 9 0 8 -3 15 -7 15 -5 0 -5 90 0 115 1 6 1 12 0 15 -5 13
-5 88 0 85 4 -2 7 2 7 10 0 8 -3 15 -7 15 -5 0 -5 96 0 110 1 3 2 8 1 12 0 4
5 5 13 2 10 -4 14 6 14 43 0 69 1 73 14 70 8 -1 12 22 12 78 0 69 2 81 18 87
11 4 16 12 13 18 -3 5 1 10 10 10 11 0 15 5 11 15 -3 8 -1 15 4 15 5 0 7 14 3
30 -5 27 -3 30 13 24 11 -4 16 -4 12 1 -4 4 -3 16 3 26 5 11 6 19 1 19 -5 0
-8 10 -6 23 1 12 3 27 3 34 1 7 8 10 18 6 12 -5 15 -2 10 10 -4 11 -1 17 8 17
16 0 17 2 19 53 1 23 6 32 17 31 11 -1 15 5 11 18 -2 10 -1 18 4 17 23 -4 30
3 28 30 -1 23 2 28 14 24 10 -4 13 -2 8 5 -4 7 -3 12 3 12 6 0 8 7 4 15 -3 9
2 22 12 29 11 8 16 20 12 30 -4 10 -1 16 8 16 14 0 20 12 16 34 -1 4 8 16 19
26 12 11 18 24 14 34 -4 11 1 19 17 25 13 5 18 10 10 10 -11 1 -11 4 -1 16 7
8 9 15 4 15 -5 1 2 7 16 15 15 9 19 14 10 15 -13 0 -13 2 0 9 8 6 18 7 24 4 5
-4 7 1 3 9 -3 9 2 24 11 34 9 11 17 25 18 32 3 38 5 43 15 37 6 -4 13 2 16 14
3 12 11 21 17 21 7 0 12 10 12 23 -1 12 4 21 12 19 6 -1 11 1 11 5 -3 17 1 36
7 31 7 -8 54 36 54 50 0 6 5 14 12 18 6 4 8 3 4 -4 -3 -6 -2 -13 3 -16 5 -3 8
8 7 25 -2 21 4 35 15 42 14 9 16 14 6 26 -9 12 -9 13 1 7 7 -4 12 -2 12 4 0 7
11 21 25 32 14 11 23 23 20 28 -3 5 -1 11 5 15 6 4 8 11 5 16 -4 5 1 9 9 9 10
0 13 6 9 15 -3 9 -2 15 3 14 19 -3 37 1 31 8 -4 3 1 11 9 18 9 6 17 22 18 36
0 13 7 24 14 24 6 0 12 4 11 9 0 5 6 13 15 18 9 5 16 17 16 27 0 21 27 48 37
37 3 -3 0 -6 -7 -6 -7 0 -11 -2 -8 -5 9 -10 38 7 38 22 0 8 5 11 10 8 6 -3 11
0 11 7 1 7 2 18 3 23 0 6 19 27 40 48 22 20 40 47 42 60 1 12 3 25 3 30 1 4 4
6 9 5 14 -5 179 168 186 195 3 15 10 26 14 26 28 -5 40 4 46 32 4 23 10 30 22
25 19 -7 59 32 59 59 0 14 6 19 19 17 13 -2 16 1 10 10 -5 9 -2 8 11 -2 10 -8
16 -10 12 -3 -4 6 -3 15 3 18 8 5 7 12 -2 23 -10 12 -10 14 0 8 6 -4 12 -3 12
2 0 5 10 8 23 8 12 -1 21 4 20 12 -3 11 10 16 30 13 5 -1 6 3 3 8 -4 5 0 12 6
14 10 4 10 6 1 6 -20 1 -15 19 8 32 15 7 19 8 15 0 -5 -7 -1 -9 8 -5 15 6 20
17 17 36 -2 16 46 55 66 53 14 -1 23 5 27 18 2 10 9 16 15 12 6 -3 11 -1 11 6
0 6 16 26 35 43 19 18 32 36 28 39 -3 4 1 7 10 7 10 0 17 5 17 11 0 6 7 9 15
5 16 -6 69 37 58 47 -6 6 11 11 29 8 4 0 4 7 1 16 -4 11 -3 14 5 9 7 -4 15 1
20 13 4 11 12 21 17 21 6 1 9 6 8 11 -3 9 2 11 35 12 9 1 22 8 27 17 6 9 21
16 35 15 16 0 25 6 25 15 1 8 6 14 12 13 7 -2 15 7 18 18 6 19 59 47 78 41 5
-1 6 2 2 8 -4 6 7 13 24 16 17 4 31 10 31 15 0 5 11 9 24 9 16 0 26 7 30 23 3
12 9 18 13 12 11 -13 36 -18 28 -5 -3 5 1 10 9 10 9 0 16 7 16 16 0 14 3 14
15 4 10 -8 15 -9 15 -2 0 6 7 9 15 6 8 -3 22 1 30 10 9 9 20 16 24 16 10 0 8
-31 -4 -49 -5 -10 -4 -12 3 -7 8 5 12 0 12 -13 0 -12 6 -21 13 -21 15 0 18
-72 3 -82 -7 -5 -6 -8 3 -8 11 0 11 -3 -3 -13 -15 -11 -22 -28 -25 -60 -1 -5
-5 -5 -11 -2 -10 6 -12 -1 -12 -45 -1 -13 -8 -30 -17 -37 -9 -7 -11 -13 -6
-13 6 0 3 -5 -5 -10 -8 -5 -10 -10 -4 -10 7 0 9 -11 6 -25 -2 -14 -11 -25 -19
-25 -8 0 -12 -4 -8 -9 3 -6 -4 -15 -15 -21 -12 -6 -20 -21 -20 -35 0 -16 -6
-25 -15 -25 -8 0 -14 -5 -12 -12 1 -7 -5 -12 -13 -13 -10 0 -15 -9 -14 -28 1
-17 -4 -27 -12 -27 -8 0 -15 -7 -15 -15 -1 -8 -3 -19 -4 -25 -1 -5 -3 -15 -4
-21 0 -5 -5 -7 -11 -4 -5 3 -10 -1 -10 -10 0 -9 -3 -14 -7 -12 -5 3 -14 -1
-21 -9 -9 -10 -9 -14 -1 -14 8 0 9 -4 0 -13 -6 -8 -9 -17 -6 -20 3 -4 2 -5 -2
-2 -9 7 -34 -16 -27 -26 3 -5 0 -8 -8 -7 -7 2 -12 -5 -11 -16 1 -18 -60 -89
-69 -80 -3 2 -10 -7 -16 -22 -7 -14 -8 -23 -2 -19 5 3 10 1 10 -5 0 -7 -9 -14
-20 -17 -11 -3 -20 -12 -20 -19 0 -8 -12 -22 -28 -32 -17 -11 -27 -25 -26 -39
1 -25 -25 -40 -38 -21 -6 11 -8 10 -8 0 0 -8 -5 -10 -12 -6 -9 5 -9 2 1 -9 9
-12 10 -17 2 -17 -7 0 -9 -4 -6 -10 7 -11 -64 -77 -78 -72 -4 1 -6 -2 -2 -8 3
-6 -7 -22 -24 -35 -16 -14 -31 -36 -33 -48 -2 -16 -10 -22 -28 -23 -14 0 -24
-6 -22 -12 2 -11 -11 -16 -31 -13 -4 0 -6 -4 -5 -11 2 -6 -4 -13 -13 -15 -12
-3 -16 2 -14 22 2 16 -2 25 -11 25 -8 0 -14 7 -14 15 0 8 -6 15 -12 16 -7 0
-21 2 -30 4 -10 2 -18 0 -18 -4 0 -4 -9 -7 -20 -7 -11 0 -20 4 -20 9 0 4 -5 5
-10 2 -6 -4 -8 -10 -5 -14 11 -18 -39 -48 -84 -50 -11 -1 -11 -4 -1 -16 11
-13 10 -14 -2 -10 -9 4 -18 -1 -22 -10 -3 -9 -11 -13 -16 -10 -6 4 -9 2 -8 -3
2 -5 -12 -24 -29 -41 -18 -17 -33 -36 -33 -42 0 -5 -5 -7 -11 -4 -6 4 -13 -2
-16 -14 -3 -11 -10 -18 -15 -15 -5 3 -12 -3 -15 -14 -3 -14 -10 -19 -21 -15
-9 4 -13 2 -9 -3 3 -6 -3 -16 -13 -24 -10 -8 -17 -17 -14 -22 3 -4 -1 -8 -9
-8 -8 0 -18 -7 -21 -16 -3 -9 -11 -12 -18 -8 -8 5 -9 2 -5 -9 4 -11 1 -17 -8
-17 -8 0 -15 -7 -15 -16 0 -8 -5 -12 -11 -8 -7 4 -7 -2 1 -17 7 -13 9 -21 5
-17 -5 5 -15 -1 -22 -12 -8 -11 -19 -18 -24 -15 -5 4 -9 0 -9 -8 0 -8 -7 -17
-15 -21 -8 -3 -15 -13 -15 -21 0 -9 -4 -14 -9 -11 -5 3 -15 -2 -22 -11 -10
-12 -10 -14 -1 -9 19 11 14 -9 -6 -27 -22 -20 -36 -22 -26 -4 5 8 2 7 -9 -2
-10 -7 -17 -19 -16 -25 3 -25 -2 -36 -17 -36 -8 0 -13 -4 -9 -9 9 -15 -16 -60
-37 -67 -12 -3 -17 -12 -14 -20 3 -8 2 -14 -2 -14 -4 0 -8 -12 -7 -27 0 -24
-4 -28 -26 -28 -26 1 -27 -1 -25 -52 1 -40 -3 -54 -14 -58 -20 -6 -21 -175 -1
-199 7 -9 11 -23 7 -31 -4 -11 -2 -14 6 -9 7 5 9 2 5 -9 -4 -11 -2 -14 9 -10
10 4 17 -2 21 -16 3 -11 9 -18 14 -15 5 3 9 -1 9 -9 0 -8 7 -18 16 -21 8 -3
12 -10 9 -16 -3 -6 1 -7 9 -4 14 5 20 -4 18 -27 -1 -3 9 -5 22 -4 25 3 48 -7
48 -21 -1 -5 6 -8 14 -6 9 2 23 -6 33 -16 13 -16 21 -18 35 -10 12 7 17 7 12
0 -3 -5 0 -14 7 -20 14 -11 77 -22 77 -13 0 3 30 5 66 4 50 -1 64 2 60 12 -2
7 4 15 15 18 10 3 19 1 19 -4 0 -5 5 -9 11 -9 5 0 7 5 3 11 -4 7 1 7 16 -1 15
-8 20 -8 16 -1 -4 6 0 14 8 17 9 3 14 10 11 15 -7 11 25 27 47 24 10 -2 21 2
25 7 4 7 1 8 -8 3 -12 -8 -12 -6 0 8 7 9 17 15 21 12 4 -3 11 5 15 18 3 13 8
17 11 10 7 -16 44 6 44 26 0 11 3 11 15 1 9 -7 17 -11 18 -9 1 2 9 13 17 23
11 14 11 18 2 12 -11 -7 -11 -4 0 13 7 11 17 20 23 20 23 -3 36 2 31 10 -3 5
4 11 15 14 14 4 18 10 13 18 -5 9 -2 10 10 6 9 -4 15 -3 12 1 -2 4 2 16 10 27
8 10 14 14 14 8 0 -6 8 -10 18 -8 9 1 16 8 14 14 -1 6 4 11 12 11 8 0 18 9 21
20 4 11 11 18 16 14 6 -3 13 3 16 15 3 11 9 18 14 15 5 -3 9 2 9 11 0 8 11 20
25 25 14 5 25 17 25 25 0 9 5 13 11 10 6 -4 13 2 16 14 3 12 12 21 19 21 8 0
14 6 14 14 0 8 9 18 21 21 11 4 18 9 15 13 -7 6 36 38 47 34 4 -1 6 1 6 5 -3
20 2 34 11 28 6 -3 10 -1 10 5 0 6 5 8 10 5 6 -4 9 -3 8 2 -4 12 28 54 35 46
4 -3 7 1 7 11 0 9 4 15 9 11 5 -3 12 4 16 14 3 11 15 23 26 26 10 4 17 10 14
15 -3 4 4 10 15 13 11 3 24 17 30 31 5 14 16 26 24 26 9 0 13 7 11 20 -2 11 1
20 6 20 6 0 7 5 4 10 -4 6 -3 9 2 8 14 -4 86 69 79 80 -4 7 1 9 15 7 18 -4 19
-2 8 11 -7 8 -8 14 -3 13 21 -4 30 2 31 23 1 13 7 24 13 26 5 2 10 10 10 18 0
9 5 12 10 9 6 -3 10 -1 10 5 0 6 5 8 10 5 7 -4 9 2 4 19 -5 20 -2 26 11 26 12
0 15 5 11 17 -4 10 -4 14 0 10 9 -9 89 74 89 93 -1 8 6 20 15 25 8 6 15 21 15
35 0 14 6 25 13 25 6 0 11 4 10 8 -2 5 9 15 24 23 16 8 29 26 33 45 4 16 13
33 21 36 8 3 14 12 14 20 0 8 4 12 9 9 12 -8 19 13 16 51 -1 18 1 30 5 28 3
-2 12 5 20 15 8 10 17 17 22 14 4 -3 8 6 8 20 0 14 10 36 21 47 17 17 19 23 8
30 -13 8 -6 13 13 10 4 0 10 8 13 19 4 11 12 20 19 20 9 0 12 15 11 47 -1 33
3 50 16 61 10 9 16 19 13 24 -3 5 0 7 8 6 7 -2 12 5 12 14 -1 10 3 15 9 11 6
-4 8 0 4 10 -3 10 -3 17 2 17 4 0 13 11 19 25 8 16 8 25 1 25 -6 0 -6 6 0 19
6 10 7 21 3 25 -3 4 1 4 10 1 14 -6 16 1 14 47 -1 29 2 61 7 72 6 13 6 16 -2
12 -14 -9 -1 26 13 36 14 9 17 229 3 245 -5 7 -13 10 -18 7 -10 -6 -7 25 4 44
5 6 4 12 0 12 -5 0 -8 23 -7 50 1 28 -2 50 -8 50 -5 0 -6 5 -3 10 3 6 1 10 -5
10 -6 0 -9 4 -5 9 3 5 1 12 -4 15 -10 7 -9 25 2 44 5 7 3 12 -4 12 -7 0 -9 3
-6 6 7 7 -30 44 -43 44 -4 0 -6 11 -5 25 2 17 -3 26 -16 30 -14 5 -18 13 -15
31 3 13 0 24 -6 24 -15 0 -49 41 -42 51 3 5 0 9 -6 9 -6 0 -9 4 -6 9 3 5 -1
11 -9 15 -8 3 -15 12 -15 19 0 10 -10 14 -29 12 -16 -1 -28 3 -28 9 1 44 -4
58 -16 48 -14 -12 -52 10 -39 23 4 5 -1 5 -10 2 -10 -4 -18 -2 -18 4 0 6 -5 7
-11 4 -6 -4 -16 1 -23 11 -8 10 -20 15 -29 11 -10 -4 -18 1 -22 13 -4 12 -12
17 -22 13 -11 -4 -14 -2 -9 5 8 13 3 16 -8 5z"/>
</g>
</svg>
